# File created by Blade
# Date/Time:  Wed Jan 21 17:10:37 2015
# Frame Rate: 120.000 fps
#------------------------------------------------------
:FULLY-SPECIFIED
:DEGREES
1372
root 20.601499 35.478359 -23.321890 -178.710417 -2.591395 -178.198759
Spine -10.587417 -3.028302 1.057109
Head 5.048177 -0.230691 2.815848
LeftShoulder -11.105740 -31.279818 16.565970
LeftArm 5.977076 6.188016 -5.530288
LeftForeArm 14.424492 0.000000 1.572640
LeftHand -4.656464 -0.000000 -1.173380
LeftHandThumb1 -26.253704 0.000000 33.147579
RightShoulder -12.663861 -7.419737 -7.481487
RightArm 9.609418 33.306148 15.244912
RightForeArm -37.931332 -0.000000 6.094366
RightHand -1.775760 0.000000 7.219675
RightHandThumb1 -24.326973 -0.000000 -32.862282
LeftUpLeg 6.333318 9.442241 7.800905
LeftLeg -3.270316 -0.000000 0.000000
LeftFoot -18.500434 23.813643 -13.262710
LeftToeBase 25.048347 -0.000000 -0.000000
RightUpLeg 6.674284 -5.028637 3.397451
RightLeg -3.360233 -0.000000 0.000000
RightFoot -22.024638 -26.956743 15.235536
RightToeBase 24.072480 -0.000000 -0.000000
1373
root 20.541123 35.472576 -23.330993 -178.634460 -2.566326 -178.076129
Spine -10.761402 -3.053856 1.246238
Head 5.089569 -0.127571 2.981197
LeftShoulder -11.222086 -31.463022 16.891531
LeftArm 5.867272 5.596152 -5.071819
LeftForeArm 14.658330 -0.000000 1.986924
LeftHand -4.784748 -0.000000 -0.973968
LeftHandThumb1 -26.253704 0.000000 33.147579
RightShoulder -12.896042 -6.962650 -7.617776
RightArm 9.673500 34.515899 14.878226
RightForeArm -38.508356 0.000000 6.210581
RightHand -1.854438 -0.000000 7.301326
RightHandThumb1 -24.326973 -0.000000 -32.862282
LeftUpLeg 6.487359 9.249051 7.831393
LeftLeg -3.645528 -0.000000 0.000000
LeftFoot -18.493756 23.943918 -13.148801
LeftToeBase 25.078896 -0.000000 -0.000000
RightUpLeg 6.594977 -5.223592 3.412145
RightLeg -3.332827 -0.000000 0.000000
RightFoot -21.955051 -26.733896 15.275073
RightToeBase 24.014781 -0.000000 -0.000000
1374
root 20.476958 35.468267 -23.343898 -178.516974 -2.512504 -177.990407
Spine -11.037124 -2.985087 1.385591
Head 5.289052 -0.144445 3.066240
LeftShoulder -11.216754 -31.562457 17.150066
LeftArm 5.754506 5.084741 -4.638544
LeftForeArm 14.590340 -0.000000 2.336733
LeftHand -4.978926 -0.000000 -0.557248
LeftHandThumb1 -26.253704 0.000000 33.147579
RightShoulder -13.136777 -6.755860 -7.773479
RightArm 9.738340 35.621790 14.602827
RightForeArm -39.082417 -0.000000 6.354100
RightHand -1.949898 0.000000 7.388010
RightHandThumb1 -24.326973 -0.000000 -32.862282
LeftUpLeg 6.608577 9.177446 7.803775
LeftLeg -4.013952 -0.000000 0.000000
LeftFoot -18.502256 24.008585 -13.166446
LeftToeBase 25.082183 -0.000000 -0.000000
RightUpLeg 6.478077 -5.377985 3.395615
RightLeg -3.307497 -0.000000 0.000000
RightFoot -21.901481 -26.580525 15.229229
RightToeBase 24.090864 -0.000000 -0.000000
1375
root 20.406887 35.466345 -23.349769 -178.390677 -2.442755 -177.943975
Spine -11.274718 -2.948298 1.496762
Head 5.379884 -0.057674 3.163301
LeftShoulder -11.300340 -31.707859 17.423426
LeftArm 5.647283 4.673370 -4.210173
LeftForeArm 14.737307 -0.000000 2.697642
LeftHand -5.115000 0.000000 -0.239466
LeftHandThumb1 -26.253704 0.000000 33.147579
RightShoulder -13.221756 -6.118217 -8.038206
RightArm 9.445594 35.927103 14.124848
RightForeArm -39.605898 -0.000000 6.557029
RightHand -1.810696 -0.000000 7.472995
RightHandThumb1 -24.326973 -0.000000 -32.862282
LeftUpLeg 6.717871 9.091656 7.709484
LeftLeg -4.396248 -0.000000 0.000000
LeftFoot -18.588521 24.143394 -13.364865
LeftToeBase 25.138787 -0.000000 -0.000000
RightUpLeg 6.328189 -5.513615 3.340234
RightLeg -3.263789 -0.000000 0.000000
RightFoot -21.843936 -26.428479 15.171554
RightToeBase 23.898237 -0.000000 -0.000000
1376
root 20.342720 35.465496 -23.357008 -178.246251 -2.360662 -177.892462
Spine -11.530050 -2.871847 1.564551
Head 5.461925 -0.065645 3.337443
LeftShoulder -11.364236 -31.785992 17.700354
LeftArm 5.579192 4.377824 -3.793149
LeftForeArm 14.925005 -0.000000 3.052115
LeftHand -5.500719 -0.000000 0.318674
LeftHandThumb1 -26.253704 0.000000 33.147579
RightShoulder -13.472097 -5.908253 -8.133304
RightArm 9.517577 36.289590 13.790992
RightForeArm -39.902880 -0.000000 6.716150
RightHand -1.762002 -0.000000 7.552993
RightHandThumb1 -24.326973 -0.000000 -32.862282
LeftUpLeg 6.789485 9.145758 7.625567
LeftLeg -4.733588 -0.000000 0.000000
LeftFoot -18.594293 24.225096 -13.417370
LeftToeBase 25.117977 -0.000000 -0.000000
RightUpLeg 6.160186 -5.581835 3.313390
RightLeg -3.234171 -0.000000 0.000000
RightFoot -21.878939 -26.335247 15.332078
RightToeBase 23.952961 -0.000000 -0.000000
1377
root 20.276607 35.466135 -23.369182 -178.145271 -2.273895 -177.862774
Spine -11.745756 -2.791328 1.616692
Head 5.564547 -0.079564 3.444597
LeftShoulder -11.428563 -31.878442 17.962872
LeftArm 5.499478 4.182119 -3.421953
LeftForeArm 14.898885 -0.000000 3.319796
LeftHand -5.509357 -0.000000 0.876152
LeftHandThumb1 -26.253704 0.000000 33.147579
RightShoulder -13.689136 -5.729974 -8.223939
RightArm 9.563369 36.507875 13.399024
RightForeArm -40.318965 -0.000000 6.680130
RightHand -1.655600 0.000000 7.564928
RightHandThumb1 -24.326973 -0.000000 -32.862282
LeftUpLeg 6.919988 9.158001 7.516774
LeftLeg -5.078009 -0.000000 0.000000
LeftFoot -18.566969 24.365731 -13.448608
LeftToeBase 25.138689 -0.000000 -0.000000
RightUpLeg 6.047002 -5.678420 3.253148
RightLeg -3.201064 -0.000000 0.000000
RightFoot -21.826588 -26.258532 15.303988
RightToeBase 23.957425 -0.000000 -0.000000
1378
root 20.209470 35.466251 -23.376059 -177.985812 -2.156167 -177.829296
Spine -12.020325 -2.707371 1.676469
Head 5.643568 -0.079453 3.550043
LeftShoulder -11.511266 -31.961714 18.253460
LeftArm 5.377864 4.138365 -3.075038
LeftForeArm 14.975682 -0.000000 3.616030
LeftHand -5.614915 -0.000000 1.276245
LeftHandThumb1 -26.253704 0.000000 33.147579
RightShoulder -13.808972 -5.508293 -8.373834
RightArm 9.485864 36.467840 13.017194
RightForeArm -40.756141 -0.000000 6.695562
RightHand -1.438936 -0.000000 7.485387
RightHandThumb1 -24.326973 -0.000000 -32.862282
LeftUpLeg 6.955756 9.276425 7.406560
LeftLeg -5.365402 -0.000000 0.000000
LeftFoot -18.562541 24.440715 -13.480923
LeftToeBase 25.056305 -0.000000 -0.000000
RightUpLeg 5.857602 -5.652697 3.205350
RightLeg -3.153490 -0.000000 0.000000
RightFoot -21.774430 -26.283785 15.308363
RightToeBase 24.104227 -0.000000 -0.000000
1379
root 20.144547 35.466707 -23.382258 -177.855411 -2.048104 -177.787778
Spine -12.240452 -2.591385 1.725766
Head 5.699990 -0.099602 3.647921
LeftShoulder -11.615503 -32.010634 18.513788
LeftArm 5.369161 4.105872 -2.751991
LeftForeArm 15.021652 -0.000000 3.816521
LeftHand -5.692864 0.000000 1.714447
LeftHandThumb1 -26.253704 0.000000 33.147579
RightShoulder -13.976082 -5.461505 -8.452908
RightArm 9.402892 36.316678 12.620923
RightForeArm -40.927777 -0.000000 6.789814
RightHand -1.344064 -0.000000 7.551969
RightHandThumb1 -24.326973 -0.000000 -32.862282
LeftUpLeg 6.997761 9.325083 7.302562
LeftLeg -5.616386 -0.000000 0.000000
LeftFoot -18.585491 24.584999 -13.524717
LeftToeBase 25.070718 -0.000000 -0.000000
RightUpLeg 5.693953 -5.600562 3.169741
RightLeg -3.097559 -0.000000 0.000000
RightFoot -21.764540 -26.280442 15.316191
RightToeBase 23.981786 -0.000000 -0.000000
1380
root 20.075672 35.468179 -23.387511 -177.714034 -1.909220 -177.751209
Spine -12.491081 -2.500762 1.816691
Head 5.817577 -0.142536 3.655349
LeftShoulder -11.738732 -32.055357 18.737167
LeftArm 5.316402 4.185251 -2.431335
LeftForeArm 15.079495 -0.000000 4.025308
LeftHand -5.880681 0.000000 2.142916
LeftHandThumb1 -26.253704 0.000000 33.147579
RightShoulder -14.046226 -5.393262 -8.575862
RightArm 9.288652 36.174053 12.215889
RightForeArm -41.143238 -0.000000 6.811311
RightHand -1.286947 -0.000000 7.588519
RightHandThumb1 -24.326973 -0.000000 -32.862282
LeftUpLeg 6.977447 9.502543 7.186385
LeftLeg -5.768875 -0.000000 0.000000
LeftFoot -18.661747 24.663772 -13.552546
LeftToeBase 24.997022 -0.000000 -0.000000
RightUpLeg 5.495903 -5.528977 3.114671
RightLeg -2.999346 -0.000000 0.000000
RightFoot -21.757851 -26.262322 15.411314
RightToeBase 23.881169 -0.000000 -0.000000
1381
root 20.008894 35.469430 -23.395518 -177.615468 -1.796159 -177.699453
Spine -12.673399 -2.399351 1.911953
Head 5.879926 -0.160656 3.608146
LeftShoulder -11.845234 -32.128848 18.944567
LeftArm 5.273508 4.346617 -2.150313
LeftForeArm 15.170044 -0.000000 4.162045
LeftHand -5.978068 -0.000000 2.639152
LeftHandThumb1 -26.253704 0.000000 33.147579
RightShoulder -14.151903 -5.375612 -8.673874
RightArm 9.141028 36.122256 11.867451
RightForeArm -41.456538 0.000000 6.994042
RightHand -1.346719 -0.000000 7.764955
RightHandThumb1 -24.326973 -0.000000 -32.862282
LeftUpLeg 6.958290 9.639428 7.096546
LeftLeg -5.840821 -0.000000 0.000000
LeftFoot -18.767148 24.733113 -13.541826
LeftToeBase 25.057027 -0.000000 -0.000000
RightUpLeg 5.360297 -5.505072 3.073650
RightLeg -2.926427 -0.000000 0.000000
RightFoot -21.726054 -26.233191 15.387120
RightToeBase 23.970238 -0.000000 -0.000000
1382
root 19.944220 35.470487 -23.399025 -177.531310 -1.695185 -177.650070
Spine -12.811029 -2.335266 2.003739
Head 5.926535 -0.176964 3.556231
LeftShoulder -11.964209 -32.180055 19.146950
LeftArm 5.194621 4.444808 -1.890607
LeftForeArm 15.309298 -0.000000 4.317327
LeftHand -6.016564 -0.000000 2.963131
LeftHandThumb1 -26.253704 0.000000 33.147579
RightShoulder -14.190535 -5.207821 -8.751999
RightArm 8.936919 35.878902 11.412404
RightForeArm -41.522086 -0.000000 6.978106
RightHand -1.382510 -0.000000 7.699766
RightHandThumb1 -24.326973 -0.000000 -32.862282
LeftUpLeg 6.922507 9.741389 7.006228
LeftLeg -5.880041 -0.000000 0.000000
LeftFoot -18.894847 24.846059 -13.533820
LeftToeBase 24.968065 -0.000000 -0.000000
RightUpLeg 5.208945 -5.453413 3.029007
RightLeg -2.807838 -0.000000 0.000000
RightFoot -21.731438 -26.210108 15.429824
RightToeBase 24.024685 -0.000000 -0.000000
1383
root 19.878079 35.471189 -23.405265 -177.497940 -1.549372 -177.615029
Spine -12.880691 -2.208524 2.067819
Head 5.959617 -0.240271 3.492679
LeftShoulder -12.058014 -32.223539 19.324752
LeftArm 5.111757 4.633899 -1.639867
LeftForeArm 15.396017 -0.000000 4.429539
LeftHand -6.114519 -0.000000 3.224127
LeftHandThumb1 -26.253704 0.000000 33.147579
RightShoulder -14.254895 -5.028255 -8.856951
RightArm 8.749309 35.917873 11.146746
RightForeArm -41.827875 -0.000000 7.113356
RightHand -1.485086 -0.000000 7.661557
RightHandThumb1 -24.326973 -0.000000 -32.862282
LeftUpLeg 6.937428 9.852682 6.912422
LeftLeg -5.885645 -0.000000 0.000000
LeftFoot -19.019509 24.930196 -13.509105
LeftToeBase 24.998141 -0.000000 -0.000000
RightUpLeg 5.116215 -5.386287 2.962723
RightLeg -2.706275 -0.000000 0.000000
RightFoot -21.738060 -26.196668 15.496230
RightToeBase 24.039001 -0.000000 -0.000000
